<svg width="68" height="68" viewBox="0 0 68 68" fill="none" xmlns="http://www.w3.org/2000/svg">
<path opacity="0.4" fill-rule="evenodd" clip-rule="evenodd" d="M19.8334 37.5415C21.007 37.5415 21.9584 38.4929 21.9584 39.6665V48.1665C21.9584 49.3401 21.007 50.2915 19.8334 50.2915C18.6598 50.2915 17.7084 49.3401 17.7084 48.1665V39.6665C17.7084 38.4929 18.6598 37.5415 19.8334 37.5415Z" fill="#28303F"/>
<path opacity="0.4" fill-rule="evenodd" clip-rule="evenodd" d="M31.1667 31.875C32.3403 31.875 33.2917 32.8264 33.2917 34V48.1667C33.2917 49.3403 32.3403 50.2917 31.1667 50.2917C29.9931 50.2917 29.0417 49.3403 29.0417 48.1667V34C29.0417 32.8264 29.9931 31.875 31.1667 31.875Z" fill="#28303F"/>
<path opacity="0.4" fill-rule="evenodd" clip-rule="evenodd" d="M42.5 37.5415C43.6736 37.5415 44.625 38.4929 44.625 39.6665V48.1665C44.625 49.3401 43.6736 50.2915 42.5 50.2915C41.3264 50.2915 40.375 49.3401 40.375 48.1665V39.6665C40.375 38.4929 41.3264 37.5415 42.5 37.5415Z" fill="#28303F"/>
<path opacity="0.4" fill-rule="evenodd" clip-rule="evenodd" d="M53.8334 31.875C55.007 31.875 55.9584 32.8264 55.9584 34V48.1667C55.9584 49.3403 55.007 50.2917 53.8334 50.2917C52.6598 50.2917 51.7084 49.3403 51.7084 48.1667V34C51.7084 32.8264 52.6598 31.875 53.8334 31.875Z" fill="#28303F"/>
<path fill-rule="evenodd" clip-rule="evenodd" d="M5.66669 3.5415C6.84029 3.5415 7.79169 4.4929 7.79169 5.6665V50.9998C7.79169 56.0855 11.9144 60.2082 17 60.2082H62.3334C63.507 60.2082 64.4584 61.1596 64.4584 62.3332C64.4584 63.5068 63.507 64.4582 62.3334 64.4582H17C9.56719 64.4582 3.54169 58.4327 3.54169 50.9998V5.6665C3.54169 4.4929 4.49308 3.5415 5.66669 3.5415Z" fill="black"/>
<path fill-rule="evenodd" clip-rule="evenodd" d="M55.336 15.4974C56.1658 16.3273 56.1658 17.6727 55.336 18.5026L48.0096 25.829C44.9667 28.8718 40.0333 28.8718 36.9905 25.829L33.671 22.5095C32.2879 21.1264 30.0455 21.1264 28.6624 22.5095L21.336 29.8359C20.5061 30.6658 19.1606 30.6658 18.3308 29.8359C17.5009 29.0061 17.5009 27.6606 18.3308 26.8307L25.6572 19.5043C28.7 16.4615 33.6334 16.4615 36.6762 19.5043L39.9957 22.8238C41.3788 24.2069 43.6213 24.2069 45.0044 22.8238L52.3308 15.4974C53.1606 14.6675 54.5061 14.6675 55.336 15.4974Z" fill="black"/>
</svg>
