<svg width="54" height="80" viewBox="0 0 54 80" fill="none" xmlns="http://www.w3.org/2000/svg">
<path d="M53.032 26.5499C53.0386 21.3605 51.5224 16.2832 48.6712 11.9473C45.82 7.61138 41.7592 4.20743 36.992 2.15721C32.2247 0.106986 26.9607 -0.499361 21.8522 0.41337C16.7438 1.3261 12.0154 3.71779 8.25312 7.29197C4.49083 10.8662 1.85998 15.4657 0.686653 20.5207C-0.486671 25.5757 -0.150872 30.8639 1.65235 35.7299C3.45557 40.5959 6.647 44.8259 10.8311 47.8955C15.0152 50.9652 20.0081 52.7396 25.191 52.9989V66.3249H14.584V68.9759H25.19V79.5829H27.842V68.9759H38.448V66.3249H27.842V52.9989C34.6298 52.6569 41.0274 49.7223 45.7146 44.8008C50.4018 39.8793 53.0211 33.3463 53.032 26.5499ZM26.516 50.4148C21.7959 50.415 17.1817 49.0156 13.257 46.3934C9.33232 43.7712 6.27337 40.0441 4.46693 35.6833C2.66049 31.3226 2.18768 26.5241 3.10841 21.8947C4.02913 17.2653 6.30199 13.0128 9.63953 9.67515C12.9771 6.33747 17.2294 4.06445 21.8588 3.14353C26.4882 2.22262 31.2867 2.69519 35.6475 4.50144C40.0083 6.3077 43.7356 9.36652 46.358 13.2911C48.9803 17.2157 50.38 21.8298 50.38 26.5499C50.3729 32.8769 47.8564 38.9428 43.3826 43.4168C38.9088 47.8908 32.843 50.4074 26.516 50.4148Z" fill="black"/>
</svg>
