<svg width="60" height="60" viewBox="0 0 60 60" fill="none" xmlns="http://www.w3.org/2000/svg">
<path opacity="0.4" d="M45.3648 11.9834L39.5956 17.7526C36.7088 15.4434 33.0469 14.0625 29.0626 14.0625C19.7428 14.0625 12.1876 21.6177 12.1876 30.9375C12.1876 40.2573 19.7428 47.8125 29.0626 47.8125C38.3824 47.8125 45.9376 40.2573 45.9376 30.9375C45.9376 28.2516 45.3101 25.7122 44.1937 23.4581L50.1494 17.5023C52.6268 21.3826 54.0626 25.9924 54.0626 30.9375C54.0626 44.7446 42.8697 55.9375 29.0626 55.9375C15.2554 55.9375 4.06256 44.7446 4.06256 30.9375C4.06256 17.1304 15.2554 5.9375 29.0626 5.9375C35.2912 5.9375 40.9878 8.21533 45.3648 11.9834Z" fill="#777777"/>
<path d="M36.9228 20.4255C34.7317 18.7845 32.0106 17.8125 29.0626 17.8125C21.8138 17.8125 15.9376 23.6888 15.9376 30.9375C15.9376 38.1862 21.8138 44.0625 29.0626 44.0625C36.3113 44.0625 42.1876 38.1862 42.1876 30.9375C42.1876 29.3068 41.8902 27.7456 41.3467 26.305L35.8885 31.7632C35.4806 35.1709 32.5801 37.8125 29.0626 37.8125C25.2656 37.8125 22.1876 34.7345 22.1876 30.9375C22.1876 27.1405 25.2656 24.0625 29.0626 24.0625C30.2797 24.0625 31.4229 24.3788 32.4146 24.9336L36.9228 20.4255Z" fill="black"/>
<path d="M55.3882 7.26333L32.1563 30.4952C32.1768 30.6397 32.1874 30.7874 32.1874 30.9375C32.1874 32.6634 30.7883 34.0625 29.0624 34.0625C27.3365 34.0625 25.9374 32.6634 25.9374 30.9375C25.9374 29.2116 27.3365 27.8125 29.0624 27.8125C29.2125 27.8125 29.3602 27.8231 29.5047 27.8436L52.7366 4.61167C53.4688 3.87944 54.656 3.87944 55.3882 4.61167C56.1204 5.34391 56.1204 6.53109 55.3882 7.26333Z" fill="#28303F"/>
</svg>
