<svg width="68" height="68" viewBox="0 0 68 68" fill="none" xmlns="http://www.w3.org/2000/svg">
<path fill-rule="evenodd" clip-rule="evenodd" d="M17 7.7915C11.9144 7.7915 7.79169 11.9142 7.79169 16.9998V22.6665C7.79169 23.8401 6.84029 24.7915 5.66669 24.7915C4.49308 24.7915 3.54169 23.8401 3.54169 22.6665V16.9998C3.54169 9.56701 9.56719 3.5415 17 3.5415H22.6667C23.8403 3.5415 24.7917 4.4929 24.7917 5.6665C24.7917 6.84011 23.8403 7.7915 22.6667 7.7915H17ZM43.2084 5.6665C43.2084 4.4929 44.1598 3.5415 45.3334 3.5415H51C58.4329 3.5415 64.4584 9.56701 64.4584 16.9998V22.6665C64.4584 23.8401 63.507 24.7915 62.3334 24.7915C61.1598 24.7915 60.2084 23.8401 60.2084 22.6665V16.9998C60.2084 11.9142 56.0856 7.7915 51 7.7915H45.3334C44.1598 7.7915 43.2084 6.84011 43.2084 5.6665ZM5.66669 43.0508C6.84029 43.0508 7.79169 44.0022 7.79169 45.1758V50.9998C7.79169 56.0855 11.9144 60.2082 17 60.2082H22.6667C23.8403 60.2082 24.7917 61.1596 24.7917 62.3332C24.7917 63.5068 23.8403 64.4582 22.6667 64.4582H17C9.56719 64.4582 3.54169 58.4327 3.54169 50.9998V45.1758C3.54169 44.0022 4.49308 43.0508 5.66669 43.0508ZM62.3334 43.0508C63.507 43.0508 64.4584 44.0022 64.4584 45.1758V50.9998C64.4584 58.4327 58.4329 64.4582 51 64.4582H45.3334C44.1598 64.4582 43.2084 63.5068 43.2084 62.3332C43.2084 61.1596 44.1598 60.2082 45.3334 60.2082H51C56.0856 60.2082 60.2084 56.0855 60.2084 50.9998V45.1758C60.2084 44.0022 61.1598 43.0508 62.3334 43.0508Z" fill="black"/>
<path opacity="0.4" fill-rule="evenodd" clip-rule="evenodd" d="M17.7084 34C17.7084 32.8264 18.6598 31.875 19.8334 31.875H48.1667C49.3403 31.875 50.2917 32.8264 50.2917 34C50.2917 35.1736 49.3403 36.125 48.1667 36.125H19.8334C18.6598 36.125 17.7084 35.1736 17.7084 34Z" fill="black"/>
<path opacity="0.4" fill-rule="evenodd" clip-rule="evenodd" d="M45.3334 19.125C46.507 19.125 47.4584 20.0764 47.4584 21.25V26.9167C47.4584 28.0903 46.507 29.0417 45.3334 29.0417C44.1598 29.0417 43.2084 28.0903 43.2084 26.9167V21.25C43.2084 20.0764 44.1598 19.125 45.3334 19.125Z" fill="black"/>
<path opacity="0.4" fill-rule="evenodd" clip-rule="evenodd" d="M34 19.125C35.1736 19.125 36.125 20.0764 36.125 21.25V26.9167C36.125 28.0903 35.1736 29.0417 34 29.0417C32.8264 29.0417 31.875 28.0903 31.875 26.9167V21.25C31.875 20.0764 32.8264 19.125 34 19.125Z" fill="black"/>
<path opacity="0.4" fill-rule="evenodd" clip-rule="evenodd" d="M22.6667 19.125C23.8403 19.125 24.7917 20.0764 24.7917 21.25V26.9167C24.7917 28.0903 23.8403 29.0417 22.6667 29.0417C21.4931 29.0417 20.5417 28.0903 20.5417 26.9167V21.25C20.5417 20.0764 21.4931 19.125 22.6667 19.125Z" fill="black"/>
<path opacity="0.4" fill-rule="evenodd" clip-rule="evenodd" d="M34 38.958C35.1736 38.958 36.125 39.9094 36.125 41.083V46.7497C36.125 47.9233 35.1736 48.8747 34 48.8747C32.8264 48.8747 31.875 47.9233 31.875 46.7497V41.083C31.875 39.9094 32.8264 38.958 34 38.958Z" fill="black"/>
<path opacity="0.4" fill-rule="evenodd" clip-rule="evenodd" d="M45.3334 38.958C46.507 38.958 47.4584 39.9094 47.4584 41.083V46.7497C47.4584 47.9233 46.507 48.8747 45.3334 48.8747C44.1598 48.8747 43.2084 47.9233 43.2084 46.7497V41.083C43.2084 39.9094 44.1598 38.958 45.3334 38.958Z" fill="black"/>
<path opacity="0.4" fill-rule="evenodd" clip-rule="evenodd" d="M22.6667 38.958C23.8403 38.958 24.7917 39.9094 24.7917 41.083V46.7497C24.7917 47.9233 23.8403 48.8747 22.6667 48.8747C21.4931 48.8747 20.5417 47.9233 20.5417 46.7497V41.083C20.5417 39.9094 21.4931 38.958 22.6667 38.958Z" fill="black"/>
</svg>
