<svg width="888" height="851" viewBox="0 0 888 851" fill="none" xmlns="http://www.w3.org/2000/svg">
<path fill-rule="evenodd" clip-rule="evenodd" d="M356.33 462.336H376.19V850.816H356.33V462.336Z" fill="#102030"/>
<path fill-rule="evenodd" clip-rule="evenodd" d="M653.91 462.336H673.77V850.816H653.91V462.336Z" fill="#102030"/>
<path fill-rule="evenodd" clip-rule="evenodd" d="M790.75 462.336H810.61V850.816H790.75V462.336Z" fill="#102030"/>
<path fill-rule="evenodd" clip-rule="evenodd" d="M463 462.336H482.86V850.816H463V462.336Z" fill="#102030"/>
<path fill-rule="evenodd" clip-rule="evenodd" d="M325.5 462.336V439.336H835.1V462.336H325.5Z" fill="#9CD05F"/>
<path opacity="0.1" fill-rule="evenodd" clip-rule="evenodd" d="M706.12 439.336H835.1V462.336H706.12V439.336Z" fill="#000001"/>
<path fill-rule="evenodd" clip-rule="evenodd" d="M642.828 439.337H442.846V410.973H642.828V439.337Z" fill="white"/>
<path fill-rule="evenodd" clip-rule="evenodd" d="M488.135 212.228H563.317L621.667 410.973H546.485L488.135 212.228V212.228Z" fill="#102030"/>
<path fill-rule="evenodd" clip-rule="evenodd" d="M684.175 87.3364H713.002C719.239 87.3349 725.191 89.9506 729.408 94.5465C733.625 99.1425 735.72 105.297 735.183 111.511L716.202 330.288C715.192 341.785 705.562 350.603 694.021 350.598H666.044L684.175 87.3364Z" fill="#102030"/>
<path fill-rule="evenodd" clip-rule="evenodd" d="M379.241 87.3364H694.933C701.138 87.3388 707.061 89.9315 711.272 94.4889C715.483 99.0464 717.6 105.155 717.113 111.341L699.771 330.195C698.813 341.744 689.148 350.622 677.559 350.598H360.275C354.038 350.605 348.084 347.99 343.869 343.393C339.653 338.795 337.564 332.637 338.11 326.424L357.122 107.662C358.115 96.1795 367.716 87.3576 379.241 87.3364V87.3364Z" fill="white"/>
<path fill-rule="evenodd" clip-rule="evenodd" d="M360.27 350.598H679.262C689.964 350.599 698.869 342.329 699.712 331.606L702.681 293.105H341.995L339.026 327.342C338.512 333.322 340.519 339.245 344.558 343.666C348.597 348.088 354.297 350.603 360.27 350.598Z" fill="#5956E9"/>
<path fill-rule="evenodd" clip-rule="evenodd" d="M642.828 439.337H442.846V410.973H642.828V439.337Z" stroke="#000001" stroke-width="2" stroke-linecap="round" stroke-linejoin="round"/>
<path fill-rule="evenodd" clip-rule="evenodd" d="M379.241 87.3364H694.933C701.138 87.3388 707.061 89.9315 711.272 94.4889C715.483 99.0464 717.6 105.155 717.113 111.341L699.771 330.195C698.813 341.744 689.148 350.622 677.559 350.598H360.275C354.038 350.605 348.084 347.99 343.869 343.393C339.653 338.795 337.564 332.637 338.11 326.424L357.122 107.662C358.115 96.1795 367.716 87.3576 379.241 87.3364V87.3364Z" stroke="#000001" stroke-width="2" stroke-linecap="round" stroke-linejoin="round"/>
<ellipse cx="515.045" cy="320.612" rx="12.9065" ry="12.9065" fill="white"/>
<path fill-rule="evenodd" clip-rule="evenodd" d="M788.231 214.701C801.344 209.462 807.296 213.972 809.928 218.155L810.173 218.559C810.29 218.76 810.4 218.959 810.502 219.156L810.698 219.545L810.876 219.926L811.037 220.295L811.181 220.651L811.31 220.992L811.475 221.47L811.568 221.764L811.683 222.163L811.817 222.696L811.911 223.161C813.965 236.333 810.162 249.872 805.275 260.884C811.224 257.382 817.806 254.833 824.645 253.192L825.501 252.991C834.136 250.906 843.044 250.188 851.901 250.861C860.029 251.631 863.07 255.662 864.126 259.349L864.239 259.773C864.257 259.844 864.273 259.914 864.289 259.984L864.378 260.401L864.452 260.811C864.463 260.879 864.474 260.947 864.483 261.014L864.537 261.413L864.578 261.804L864.607 262.183L864.627 262.551L864.637 262.906L864.639 263.248L864.634 263.573L864.623 263.882L864.598 264.312L864.565 264.698L864.516 265.136L864.411 265.848C864.411 265.851 864.411 265.852 864.411 265.851C859.478 286.71 838.905 302.046 826.623 309.55L825.577 310.182C825.406 310.285 825.237 310.385 825.07 310.484L824.093 311.057L823.166 311.589L822.294 312.081L821.479 312.532L820.725 312.942L819.716 313.478L818.617 314.044L817.552 314.573L817.261 314.711C809.222 318.599 802.466 319.165 797.366 318.538L796.737 318.453L796.125 318.357C796.025 318.341 795.925 318.323 795.826 318.305L795.241 318.194C795.145 318.175 795.049 318.155 794.955 318.135L794.396 318.01L793.856 317.877L793.334 317.738L792.83 317.592L792.345 317.441C792.265 317.416 792.187 317.39 792.109 317.364L791.652 317.208L791.214 317.049L790.794 316.888L790.394 316.726L789.831 316.484L789.479 316.324L788.99 316.088L788.688 315.936L788.146 315.646L787.686 315.382L787.31 315.152L786.944 314.913L786.661 314.711C779.507 309.743 778.228 302.621 779.622 295.375L779.765 294.674C779.866 294.206 779.977 293.738 780.098 293.27C777.562 294.292 775.108 294.776 772.905 294.949L772.283 294.99C771.462 295.034 770.68 295.036 769.946 295.008L769.405 294.982L768.883 294.946L768.38 294.902L767.898 294.849L767.437 294.791C767.362 294.781 767.288 294.77 767.215 294.76L766.788 294.694L766.384 294.625L766.005 294.553L765.484 294.445L765.024 294.338L764.397 294.174L763.681 293.951C753.101 289.271 748.861 280.061 749.521 269.061C750.331 255.701 754.111 242.581 762.961 232.271C769.887 224.51 778.544 218.49 788.231 214.701ZM678.701 251.921C681.378 249.91 685.281 249.658 689.021 250.086L689.642 250.164C689.849 250.192 690.054 250.222 690.259 250.253L690.87 250.353L691.474 250.461L692.069 250.578L692.654 250.702L693.227 250.832L693.787 250.967L694.6 251.176L695.375 251.39L695.869 251.533L696.571 251.746L697.223 251.954L697.82 252.153L698.521 252.398L699.104 252.611L700.051 252.981C755.402 276.053 743.432 296.762 738.701 302.365L738.387 302.728C738.337 302.784 738.288 302.838 738.24 302.891L737.971 303.179L737.738 303.418L737.404 303.741L737.281 303.851C721.825 319.557 697.4 293.497 684.534 277.062L683.474 275.697L682.473 274.385C682.311 274.171 682.151 273.959 681.995 273.751L681.085 272.531L680.24 271.38L679.462 270.307L678.755 269.317L677.831 268.005L677.081 266.92L676.057 265.401L675.951 265.241C673.326 260.734 674.174 257.313 675.593 255.067L675.799 254.754C675.834 254.704 675.869 254.653 675.905 254.604L676.119 254.315C676.191 254.222 676.264 254.131 676.337 254.043L676.555 253.786L676.773 253.546L676.989 253.322L677.2 253.115L677.405 252.924L677.696 252.668L677.962 252.449L678.268 252.216L678.503 252.05L678.701 251.921Z" fill="#9CD05F"/>
<path opacity="0.1" fill-rule="evenodd" clip-rule="evenodd" d="M788.231 214.701C801.344 209.462 807.296 213.972 809.928 218.155L810.173 218.559C810.29 218.76 810.4 218.959 810.502 219.156L810.698 219.545L810.876 219.926L811.037 220.295L811.181 220.651L811.31 220.992L811.475 221.47L811.568 221.764L811.683 222.163L811.817 222.696L811.911 223.161C813.965 236.334 810.162 249.873 805.275 260.885C796.73 265.911 789.49 272.903 784.661 281.991C782.791 285.522 781.106 289.386 780.098 293.27C777.562 294.292 775.108 294.776 772.905 294.949L772.283 294.99C771.462 295.034 770.68 295.036 769.946 295.008L769.405 294.982L768.883 294.946L768.38 294.902L767.897 294.849L767.437 294.791C767.362 294.781 767.288 294.77 767.215 294.76L766.788 294.694L766.384 294.625L766.005 294.553L765.484 294.445L765.024 294.338L764.397 294.174L763.681 293.951C753.101 289.271 748.861 280.061 749.521 269.061C750.331 255.701 754.111 242.581 762.961 232.271C769.887 224.51 778.544 218.49 788.231 214.701Z" fill="#000001"/>
<path d="M700.051 268.001C700.051 268.001 742.771 288.721 752.281 343.701" stroke="#000001" stroke-width="2" stroke-linecap="round" stroke-linejoin="round"/>
<path d="M791.191 234.372C791.191 234.372 756.301 267.992 760.531 343.692" stroke="#000001" stroke-width="2" stroke-linecap="round" stroke-linejoin="round"/>
<path d="M840.251 268.841C840.251 268.841 789.921 277.291 777.451 343.691" stroke="#000001" stroke-width="2" stroke-linecap="round" stroke-linejoin="round"/>
<path d="M700.051 268.001C700.051 268.001 742.771 288.721 752.281 343.701" stroke="#000001" stroke-width="2" stroke-linecap="round" stroke-linejoin="round"/>
<path d="M791.191 234.372C791.191 234.372 756.301 267.992 760.531 343.692" stroke="#000001" stroke-width="2" stroke-linecap="round" stroke-linejoin="round"/>
<path d="M840.251 268.841C840.251 268.841 789.921 277.291 777.451 343.691" stroke="#000001" stroke-width="2" stroke-linecap="round" stroke-linejoin="round"/>
<path fill-rule="evenodd" clip-rule="evenodd" d="M739.171 343.691L720.991 439.691H809.801L788.651 343.691H739.171Z" fill="#FFDB60"/>
<path d="M747.791 364.441L748.501 365.881" stroke="#000001" stroke-width="2" stroke-linecap="round" stroke-linejoin="round"/>
<path d="M780.141 364.221L780.641 365.671" stroke="#000001" stroke-width="2" stroke-linecap="round" stroke-linejoin="round"/>
<path d="M764.981 384.501C764.9 385.142 764.972 385.794 765.191 386.401" stroke="#000001" stroke-width="2" stroke-linecap="round" stroke-linejoin="round"/>
<path d="M744.042 405.861V407.551" stroke="#000001" stroke-width="2" stroke-linecap="round" stroke-linejoin="round"/>
<path d="M766.001 420.451L766.231 421.931" stroke="#000001" stroke-width="2" stroke-linecap="round" stroke-linejoin="round"/>
<path d="M784.551 403.542L784.761 405.872" stroke="#000001" stroke-width="2" stroke-linecap="round" stroke-linejoin="round"/>
<path d="M747.791 364.441L748.501 365.881" stroke="#000001" stroke-width="2" stroke-linecap="round" stroke-linejoin="round"/>
<path d="M780.141 364.221L780.641 365.671" stroke="#000001" stroke-width="2" stroke-linecap="round" stroke-linejoin="round"/>
<path d="M764.981 384.501C764.9 385.142 764.972 385.794 765.191 386.401" stroke="#000001" stroke-width="2" stroke-linecap="round" stroke-linejoin="round"/>
<path d="M744.042 405.861V407.551" stroke="#000001" stroke-width="2" stroke-linecap="round" stroke-linejoin="round"/>
<path d="M766.001 420.451L766.231 421.931" stroke="#000001" stroke-width="2" stroke-linecap="round" stroke-linejoin="round"/>
<path d="M784.551 403.542L784.761 405.872" stroke="#000001" stroke-width="2" stroke-linecap="round" stroke-linejoin="round"/>
<path fill-rule="evenodd" clip-rule="evenodd" d="M263.193 97.8424L263.81 97.8619L264.451 97.8992C303.804 98.9828 307.473 137.705 307.583 150.839L307.585 151.743L307.578 152.552L307.563 153.262L307.534 154.128L307.505 154.74L307.479 155.146C305.815 202.8 282.435 209.854 274.534 210.875L273.99 210.938L273.504 210.984L273.077 211.015L272.557 211.038L272.19 211.044L271.947 211.04C247.085 211.555 236.347 196.384 231.941 186.149L231.63 185.409C231.58 185.287 231.531 185.166 231.482 185.046L231.204 184.336L230.946 183.648L230.709 182.984C230.671 182.876 230.634 182.768 230.597 182.662L230.389 182.037L230.199 181.441L230.027 180.874L229.872 180.34L230.332 180.649C212.697 168.915 210.499 159.914 210.898 155.354L210.94 154.963L210.993 154.596L211.056 154.252L211.126 153.932C211.138 153.881 211.151 153.83 211.163 153.781L211.241 153.497L211.322 153.238L211.404 153.003L211.484 152.794L211.598 152.527L211.727 152.262L211.849 152.046C214.256 147.892 217.082 147.778 219.386 148.804C218.862 103.832 249.423 98.3791 260.504 97.8786L261.213 97.8522C261.327 97.8489 261.437 97.8461 261.545 97.8438L262.162 97.8351L262.712 97.8354L263.193 97.8424Z" fill="#FFDEB7"/>
<path d="M216.725 155.351C216.725 155.351 220.681 152.948 226.41 166.246" stroke="#000001" stroke-width="2" stroke-linecap="round" stroke-linejoin="round"/>
<path d="M251.189 145.925L265.055 145.989" stroke="#000001" stroke-width="2" stroke-linecap="round" stroke-linejoin="round"/>
<path d="M287.927 147.198L299.55 147.604" stroke="#000001" stroke-width="2" stroke-linecap="round" stroke-linejoin="round"/>
<ellipse cx="257.365" cy="158.189" rx="2.67" ry="4.84" transform="rotate(2 257.365 158.189)" fill="#102030"/>
<ellipse cx="293.318" cy="159.574" rx="2.67" ry="4.84" transform="rotate(2 293.318 159.574)" fill="#102030"/>
<path fill-rule="evenodd" clip-rule="evenodd" d="M262.802 86.9497C285.936 87.7575 304.25 101.028 303.895 111.204C303.539 121.38 284.497 128.974 261.363 128.166C252.715 127.864 244.944 126.439 238.62 124.24C237.739 126.889 237.005 129.423 236.396 131.835L236.102 133.031C235.723 134.612 235.399 136.139 235.122 137.608L234.923 138.7C234.859 139.06 234.799 139.416 234.741 139.77L234.576 140.818L234.426 141.844C234.403 142.013 234.38 142.182 234.358 142.349L234.232 143.342C234.212 143.506 234.192 143.669 234.174 143.831L234.069 144.79C234.053 144.948 234.037 145.105 234.022 145.261L233.937 146.187L233.866 147.089L233.806 147.969C233.797 148.113 233.789 148.257 233.78 148.4L233.738 149.244C233.732 149.383 233.726 149.52 233.72 149.657L233.693 150.466L233.676 151.25L233.668 152.011L233.668 152.747C233.669 152.868 233.67 152.987 233.671 153.106L233.692 154.145L233.714 154.807L233.742 155.444L233.775 156.055L233.814 156.641L233.879 157.471L233.952 158.243L234.057 159.18L234.14 159.812L234.223 160.384L234.332 161.051L234.457 161.727L234.58 162.307L234.674 162.693L229.263 162.324L229.101 161.912L228.776 161.114C228.559 160.593 228.341 160.095 228.123 159.619L227.796 158.921C227.742 158.807 227.688 158.695 227.633 158.584L227.308 157.934L226.985 157.315L226.665 156.728C226.612 156.632 226.559 156.538 226.506 156.445L226.191 155.902C226.138 155.814 226.086 155.728 226.035 155.642L225.726 155.143L225.424 154.672C225.374 154.596 225.324 154.521 225.275 154.447L224.982 154.018L224.696 153.615L224.418 153.238L224.149 152.888L223.89 152.562L223.641 152.261L223.402 151.983L223.175 151.729L222.961 151.497L222.759 151.287L222.483 151.012L222.241 150.784L221.973 150.547L221.652 150.29L221.61 150.26L221.433 150.117C219.999 148.98 218.065 147.945 216.062 148.365L215.927 147.795C215.905 147.698 215.884 147.6 215.862 147.501L215.735 146.893L215.615 146.262C215.595 146.155 215.576 146.047 215.557 145.938L215.447 145.273L215.344 144.585L215.25 143.876L215.163 143.146C215.15 143.023 215.136 142.899 215.123 142.774L215.051 142.014L214.988 141.235L214.935 140.438C214.919 140.169 214.905 139.897 214.893 139.623L214.862 138.79C214.858 138.65 214.854 138.51 214.851 138.368L214.838 137.512C214.772 129.156 216.455 118.644 221.939 108.726L221.726 109.115C221.713 108.856 221.71 108.596 221.72 108.334C222.075 98.1587 239.668 86.1418 262.802 86.9497Z" fill="#49ADCF"/>
<g style="mix-blend-mode:screen" opacity="0.2">
<path fill-rule="evenodd" clip-rule="evenodd" d="M238.62 124.24L238.38 124.971C237.817 126.703 237.317 128.385 236.873 130.015L236.551 131.228C236.5 131.428 236.448 131.628 236.398 131.827L236.107 133.01L235.836 134.173C235.705 134.749 235.581 135.318 235.464 135.879L235.24 136.991C235.096 137.725 234.965 138.446 234.844 139.153L234.671 140.202C234.644 140.375 234.617 140.547 234.591 140.718L234.442 141.736C234.418 141.903 234.395 142.07 234.373 142.236L234.246 143.221C234.226 143.383 234.207 143.545 234.188 143.705L234.083 144.657L233.991 145.587C233.977 145.74 233.963 145.892 233.95 146.043L233.877 146.94L233.816 147.813L233.766 148.664L233.727 149.492L233.698 150.296L233.679 151.077L233.669 151.835L233.667 152.569C233.668 152.689 233.668 152.808 233.669 152.926L233.687 153.964L233.707 154.625L233.733 155.262L233.765 155.874L233.801 156.461L233.864 157.295L233.935 158.071L234.011 158.789L234.064 159.236L234.119 159.656L234.201 160.237L234.309 160.919L234.412 161.492L234.544 162.146L234.674 162.693L229.263 162.324L229.101 161.912L228.776 161.114C228.559 160.593 228.341 160.095 228.123 159.618L227.796 158.92C227.742 158.807 227.688 158.695 227.633 158.584L227.308 157.934L226.985 157.315L226.665 156.727C226.611 156.632 226.558 156.538 226.506 156.445L226.19 155.902C226.138 155.814 226.086 155.727 226.035 155.642L225.726 155.143L225.424 154.672C225.374 154.596 225.324 154.521 225.275 154.447L224.982 154.017L224.696 153.615L224.418 153.238L224.149 152.887L223.89 152.562L223.64 152.26L223.402 151.983L223.175 151.728L222.961 151.497L222.759 151.287L222.483 151.012L222.241 150.784L221.973 150.547L221.652 150.29L221.609 150.26L221.433 150.117C219.999 148.98 218.065 147.945 216.062 148.365L215.927 147.795C215.905 147.698 215.883 147.6 215.862 147.5L215.735 146.893L215.615 146.262C215.595 146.155 215.576 146.047 215.557 145.938L215.447 145.273L215.344 144.585L215.25 143.876L215.163 143.146C215.15 143.023 215.136 142.899 215.123 142.774L215.051 142.014L214.988 141.235L214.935 140.438C214.919 140.169 214.905 139.897 214.893 139.622L214.862 138.79C214.858 138.65 214.854 138.509 214.851 138.368L214.838 137.511C214.772 129.156 216.455 118.644 221.939 108.726L221.726 109.115C222.039 115.183 228.461 120.709 238.62 124.24Z" fill="white"/>
</g>
<path fill-rule="evenodd" clip-rule="evenodd" d="M238.722 197.031C238.878 197.214 239.037 197.396 239.199 197.578L239.691 198.12C240.273 198.751 240.885 199.373 241.528 199.981L242.088 200.5L242.663 201.012C248.979 206.519 258.082 210.737 271.133 210.599L271.738 210.59L272.105 210.593L272.43 210.585L272.699 210.574L273.178 210.543L273.742 210.493L274.164 210.445L274.619 210.385L275.107 210.311L275.627 210.221C275.716 210.205 275.806 210.188 275.898 210.17L276.461 210.055C277.038 209.93 277.656 209.777 278.307 209.588L277.491 232.978C277.106 244.017 267.844 252.654 256.805 252.268C245.766 251.883 237.13 242.621 237.515 231.582L238.722 197.031Z" fill="#FFDEB7"/>
<path d="M241.629 199.974L242.188 200.493L242.763 201.005C248.577 206.074 256.753 210.051 268.195 210.544" stroke="#000001" stroke-width="2" stroke-linecap="round" stroke-linejoin="round"/>
<path fill-rule="evenodd" clip-rule="evenodd" d="M305.536 210.011C307.741 202.154 307.331 192.994 307.388 185.611L307.456 157.596C307.456 157.596 307.406 191.425 294.384 190.971C294.181 187.902 294.517 184.571 292.565 182.002C290.394 179.144 286.501 178.308 283.147 177.79C283.147 177.79 280.908 180.874 276.247 176.789C272.946 176.819 269.686 177.525 266.669 178.866C264.16 179.939 262.042 180.986 261.022 183.562C260.162 186.299 259.447 189.08 258.88 191.892C257.091 191.79 255.315 191.527 253.574 191.106C248.616 190.119 244.029 187.777 240.322 184.34C236.454 180.482 235.402 175.933 234.649 171.134C234.28 168.82 233.983 166.448 233.445 164.087C233.385 163.785 232.263 158.943 232.122 158.968L228.233 159.743C230.557 166.828 229.951 173.862 230.117 181.162C230.272 188.171 230.481 195.093 232.323 201.931C234.042 208.285 236.915 213.719 242.172 217.895C246.884 221.642 252.627 223.963 258.395 225.536C262.563 226.639 266.806 227.433 271.09 227.91C280.477 229.018 291.821 227.974 299.098 221.294C302.269 218.218 304.501 214.306 305.536 210.011Z" fill="#102030"/>
<path d="M273.918 155.154C273.918 155.154 269.697 178.911 281.024 178.887C281.024 178.887 286.448 178.015 282.232 171.524C280.171 166.595 279.101 161.308 279.083 155.965C279.083 155.965 279.419 152.064 276.664 152.178C276.663 152.198 274.376 151.488 273.918 155.154Z" fill="#F49262"/>
<path d="M265.887 186.283C265.887 186.283 277.883 195.787 287.922 185.661" stroke="#000001" stroke-width="2" stroke-linecap="round" stroke-linejoin="round"/>
<path fill-rule="evenodd" clip-rule="evenodd" d="M259.627 85.708C226.035 87.2561 214.434 103.215 214.163 140.404L255.353 139.701C255.353 139.701 252.336 116.652 274.833 116.537C274.833 116.537 294.891 115.236 294.06 139.042L311.911 138.735C311.911 138.735 314.332 80.5187 259.627 85.708Z" fill="#9CD05F"/>
<path fill-rule="evenodd" clip-rule="evenodd" d="M296.464 138.966L256.615 139.385C253.73 139.411 251.348 137.137 251.241 134.255C251.192 132.834 251.713 131.452 252.689 130.419C253.665 129.385 255.014 128.785 256.436 128.752L295.804 127.756L296.464 138.966Z" fill="#F8574D"/>
<path fill-rule="evenodd" clip-rule="evenodd" d="M259.97 133.244C260.096 132.707 260.634 132.373 261.172 132.499C261.713 132.626 262.184 132.957 262.486 133.424C262.787 133.888 262.654 134.507 262.19 134.807C261.727 135.107 261.108 134.974 260.807 134.511C260.786 134.478 260.754 134.455 260.716 134.446C260.178 134.32 259.844 133.782 259.97 133.244Z" fill="#102030"/>
<path fill-rule="evenodd" clip-rule="evenodd" d="M267.358 132.546C268.048 132.472 268.728 132.76 269.153 133.309C269.491 133.745 269.412 134.373 268.975 134.712C268.572 135.024 268.006 134.98 267.655 134.629L267.572 134.534L267.456 134.54C266.955 134.536 266.526 134.157 266.471 133.647C266.412 133.098 266.809 132.605 267.358 132.546Z" fill="#102030"/>
<path fill-rule="evenodd" clip-rule="evenodd" d="M273.342 132.222C273.82 132.055 274.348 132.117 274.775 132.39C275.202 132.662 275.48 133.116 275.529 133.62C275.582 134.169 275.18 134.658 274.631 134.712C274.238 134.75 273.876 134.556 273.682 134.242L273.64 134.164L273.553 134.16C273.223 134.12 272.924 133.916 272.773 133.604L272.728 133.496C272.546 132.975 272.821 132.405 273.342 132.222Z" fill="#102030"/>
<path fill-rule="evenodd" clip-rule="evenodd" d="M279.525 132.525C279.843 132.126 280.403 132.035 280.827 132.294L280.93 132.366L281.534 132.848C281.966 133.192 282.037 133.821 281.692 134.253C281.374 134.652 280.814 134.743 280.39 134.483L280.287 134.411L279.683 133.93C279.252 133.586 279.181 132.956 279.525 132.525Z" fill="#102030"/>
<path fill-rule="evenodd" clip-rule="evenodd" d="M287.582 132.266C288.135 132.381 288.601 132.75 288.839 133.262C289.073 133.763 288.856 134.358 288.355 134.591C287.891 134.808 287.344 134.636 287.082 134.21L287.075 134.196L287.061 134.194C286.623 134.048 286.34 133.617 286.382 133.157L286.399 133.041C286.503 132.539 286.967 132.204 287.466 132.249L287.582 132.266Z" fill="#102030"/>
<path d="M225.432 140.197C225.432 140.197 222.304 93.9696 254.638 89.2552" stroke="#000001" stroke-width="2" stroke-linecap="round" stroke-linejoin="round"/>
<path fill-rule="evenodd" clip-rule="evenodd" d="M211.863 152.131C214.28 147.943 217.125 147.862 219.44 148.913C219.402 145.97 219.509 143.202 219.73 140.589L214.164 140.394C214.164 140.394 176.936 147.709 191.147 161.374C191.147 161.374 197.454 168.458 213.682 165.082C208.704 156.914 211.863 152.131 211.863 152.131Z" fill="#F8574D"/>
<path fill-rule="evenodd" clip-rule="evenodd" d="M413.425 770.546L484.785 772.866L583.815 832.316C586.81 834.045 588.692 837.193 588.81 840.633L588.815 840.956V849.846L413.425 850.336L413.424 849.955L277.055 850.336V770.546L348.335 772.866L413.424 811.909L413.425 770.546Z" fill="#102030"/>
<g style="mix-blend-mode:screen" opacity="0.2">
<path fill-rule="evenodd" clip-rule="evenodd" d="M413.425 770.546V850.336L588.815 849.846V840.956C588.808 837.391 586.903 834.099 583.815 832.316L484.785 772.866L413.425 770.546Z" fill="white"/>
</g>
<path fill-rule="evenodd" clip-rule="evenodd" d="M125.465 444.106L310.015 453.116L309.887 453.563L391.695 456.826L392.408 456.769L393.276 456.709L394.466 456.638L395.964 456.565C420.663 455.48 544.164 456.072 544.335 576.366L548.555 717.194L551.785 717.116C553.249 717.078 554.668 717.601 555.756 718.571L555.956 718.758C557.001 719.783 557.612 721.167 557.671 722.623L557.676 722.896V776.796C557.676 778.321 557.069 779.782 555.991 780.859C554.98 781.868 553.631 782.462 552.21 782.53L551.925 782.536H389.185C386.151 782.536 383.666 780.182 383.459 777.2L254.635 778.946C253.072 778.971 251.564 778.366 250.451 777.268C249.403 776.234 248.788 774.845 248.721 773.382L248.715 773.106V729.636C248.715 726.528 251.146 723.978 254.225 723.805L254.445 723.796L257.485 723.735L257.485 638.716L250.569 567.84C131.564 558.867 125.641 461.676 125.454 446.183L125.449 445.29L125.454 444.64L125.465 444.106ZM384.188 724.03L383.796 724.039L383.875 724.675C383.966 724.452 384.071 724.237 384.188 724.03ZM384.175 571.456L277.015 568.376L276.868 568.382L384.177 571.579L384.175 571.456Z" fill="#F8574D"/>
<path opacity="0.1" fill-rule="evenodd" clip-rule="evenodd" d="M250.545 567.597L386.425 571.647L389.075 721.115L389.045 721.117C388.719 721.125 388.399 721.16 388.088 721.22L387.809 721.281L387.8 721.207L257.484 723.737L257.485 638.717L250.545 567.597Z" fill="#000001"/>
<path opacity="0.1" fill-rule="evenodd" clip-rule="evenodd" d="M387.8 721.207L387.809 721.281C385.298 721.899 383.445 724.166 383.445 726.857V776.797C383.445 776.95 383.452 777.103 383.463 777.254L254.635 778.947C253.072 778.971 251.564 778.366 250.451 777.268C249.403 776.234 248.788 774.845 248.721 773.382L248.715 773.107V729.637C248.715 726.528 251.146 723.978 254.224 723.805L254.445 723.797L387.8 721.207Z" fill="#000001"/>
<path opacity="0.1" fill-rule="evenodd" clip-rule="evenodd" d="M387.8 721.207L387.809 721.281C385.298 721.899 383.445 724.166 383.445 726.857V776.797C383.445 776.95 383.452 777.103 383.463 777.254L254.635 778.947C253.072 778.971 251.564 778.366 250.451 777.268C249.403 776.234 248.788 774.845 248.721 773.382L248.715 773.107V729.637C248.715 726.528 251.146 723.978 254.224 723.805L254.445 723.797L387.8 721.207Z" fill="#000001"/>
<g style="mix-blend-mode:screen" opacity="0.2">
<path fill-rule="evenodd" clip-rule="evenodd" d="M551.785 717.117L389.045 721.117C385.93 721.193 383.445 723.74 383.445 726.857V776.797C383.445 779.967 386.015 782.537 389.185 782.537H551.925C553.45 782.539 554.912 781.936 555.991 780.859C557.069 779.782 557.675 778.321 557.675 776.797V722.897C557.687 721.341 557.066 719.847 555.956 718.758C554.846 717.668 553.341 717.076 551.785 717.117Z" fill="white"/>
</g>
<path d="M396.235 361.356C396.235 361.356 401.015 373.866 402.485 378.276" stroke="white"/>
<path fill-rule="evenodd" clip-rule="evenodd" d="M456.535 388.937C456.535 388.937 457.635 425.067 470.875 422.037C470.875 422.037 481.085 421.757 476.395 400.517L474.465 385.907L456.535 388.937Z" fill="#FFDEB7"/>
<path fill-rule="evenodd" clip-rule="evenodd" d="M444.035 394.086C444.035 394.086 447.245 423.836 457.635 422.956C457.635 422.956 467.755 422.956 463.155 406.956L459.665 389.856H444.035L444.035 394.086Z" fill="#FFDEB7"/>
<path fill-rule="evenodd" clip-rule="evenodd" d="M434.845 399.236C434.845 399.236 437.845 423.466 446.425 422.966C446.425 422.966 457.085 424.606 453.045 407.876L449.915 391.876L438.515 393.766L434.845 399.236Z" fill="#FFDEB7"/>
<path opacity="0.1" fill-rule="evenodd" clip-rule="evenodd" d="M474.465 385.907L476.395 400.517C479.538 414.748 475.991 419.569 473.309 421.202L473.071 421.34L472.839 421.462C472.801 421.481 472.763 421.499 472.726 421.517L472.505 421.616L472.293 421.702L472.091 421.776L471.9 421.838L471.637 421.911L471.48 421.948L471.273 421.989L471.059 422.021L470.875 422.037C467.829 422.734 465.426 421.358 463.531 418.827C462.565 421.051 460.929 422.077 459.626 422.551L459.331 422.651L459.051 422.733L458.788 422.799L458.546 422.85L458.326 422.889L458.131 422.917L457.965 422.936L457.727 422.954L457.635 422.957C455.636 423.126 453.902 422.161 452.406 420.491C451 422.441 448.955 422.91 447.657 422.995L447.361 423.008L447.059 423.01L446.82 423.002L446.56 422.983L446.425 422.967C442.976 423.168 440.428 419.371 438.615 414.759L438.342 414.043C438.297 413.923 438.253 413.802 438.209 413.681L437.953 412.951C437.828 412.585 437.707 412.215 437.59 411.845L437.362 411.104C437.325 410.98 437.288 410.857 437.252 410.733L437.04 409.993L436.839 409.256L436.648 408.526L436.468 407.805L436.298 407.096L436.138 406.401L435.918 405.39L435.657 404.116L435.487 403.227L435.293 402.147L435.07 400.794L434.88 399.503L434.845 399.237L438.515 393.767L444.035 392.851V389.857L456.575 389.854L456.535 388.937L474.465 385.907Z" fill="#000001"/>
<path fill-rule="evenodd" clip-rule="evenodd" d="M310.185 383.476C310.185 383.476 327.095 446.356 375.635 434.586C375.635 434.586 420.135 425.026 444.035 394.136C444.035 394.136 460.945 393.036 470.875 389.356C470.875 389.356 475.525 423.916 487.875 422.086C487.875 422.086 499.515 423.916 491.795 389.356C491.795 389.356 486.795 345.416 443.995 347.806C443.995 347.806 415.675 349.646 396.195 361.406L391.775 351.116L310.185 383.476Z" fill="#FFDEB7"/>
<path fill-rule="evenodd" clip-rule="evenodd" d="M124.225 454.667C122.063 432.869 121.618 410.934 122.895 389.067C124.065 370.547 126.645 351.997 131.655 334.067C135.475 320.457 141.115 306.187 148.285 294.137C152.203 287.563 156.744 281.381 161.845 275.677C189.535 244.617 230.475 230.877 271.205 229.127C271.205 229.127 377.205 222.197 402.485 353.597L313.895 388.347L307.055 453.437C307.055 453.437 185.755 469.157 124.225 454.627" fill="#9CD05F"/>
<path d="M277.055 830.687L409.724 832.317" stroke="white" stroke-width="2" stroke-linecap="round" stroke-linejoin="round"/>
<path d="M381.055 791.876C381.055 791.876 375.055 794.876 369.055 803.316" stroke="white" stroke-width="2" stroke-linecap="round" stroke-linejoin="round"/>
<path d="M393.305 798.997C393.305 798.997 387.305 801.997 381.305 810.437" stroke="white" stroke-width="2" stroke-linecap="round" stroke-linejoin="round"/>
<path d="M413.425 830.687L583.845 832.317" stroke="white" stroke-width="2" stroke-linecap="round" stroke-linejoin="round"/>
<path d="M517.435 791.876C517.435 791.876 511.435 794.876 505.435 803.316" stroke="white" stroke-width="2" stroke-linecap="round" stroke-linejoin="round"/>
<path d="M529.675 798.997C529.675 798.997 523.675 801.997 517.675 810.437" stroke="white" stroke-width="2" stroke-linecap="round" stroke-linejoin="round"/>
<path d="M313.885 388.387L303.935 392.247L273.785 298.477" stroke="#000001" stroke-width="2" stroke-linecap="round" stroke-linejoin="round"/>
<path d="M430.255 408.147C435.356 403.986 439.978 399.27 444.035 394.087C444.035 394.087 460.945 392.987 470.875 389.307C470.875 389.307 475.525 423.867 487.875 422.037" stroke="#000001" stroke-width="2" stroke-linecap="round" stroke-linejoin="round"/>
<path d="M456.785 392.637C457.485 401.767 460.305 424.467 470.905 422.037C470.905 422.037 476.315 421.887 477.445 413.607" stroke="#000001" stroke-width="2" stroke-linecap="round" stroke-linejoin="round"/>
<path d="M444.035 394.086C444.035 394.086 447.245 423.836 457.635 422.956C460.031 422.886 462.241 421.65 463.555 419.646" stroke="#000001" stroke-width="2" stroke-linecap="round" stroke-linejoin="round"/>
<path d="M435.645 404.057C437.035 411.057 440.325 423.327 446.425 422.967C448.722 423.253 451.001 422.311 452.425 420.487" stroke="#000001" stroke-width="2" stroke-linecap="round" stroke-linejoin="round"/>
<path d="M101.834 656.787H320.014" stroke="#000001" stroke-width="2" stroke-linecap="round" stroke-linejoin="round"/>
<path fill-rule="evenodd" clip-rule="evenodd" d="M331.594 568.606C338.84 568.606 344.714 574.48 344.714 581.726V583.976C344.714 591.222 338.84 597.096 331.594 597.096H93.5737C86.3278 597.096 80.4537 591.222 80.4537 583.976V581.726C80.4537 574.48 86.3278 568.606 93.5737 568.606H331.594ZM154.594 308.336C181.684 308.336 197.704 325.396 201.714 358.136L206.374 385.676L210.013 407.143L210.176 408.073L210.921 412.198L211.079 413.102L211.231 414.002L211.376 414.899L211.511 415.792C211.532 415.94 211.554 416.089 211.574 416.237L211.692 417.125C212.468 423.329 212.235 429.301 208.404 435.336C203.413 443.162 194.785 447.912 185.504 447.946H83.5937C69.2335 447.931 57.3841 436.705 56.5937 422.366L44.0537 358.136C37.5637 322.136 51.0537 308.336 91.1637 308.336H154.594Z" fill="#FFDB60"/>
<path fill-rule="evenodd" clip-rule="evenodd" d="M343.384 849.987H355.564L326.274 597.747H314.094L343.384 849.987Z" fill="#102030"/>
<path fill-rule="evenodd" clip-rule="evenodd" d="M262.824 849.987H275.004L245.714 597.747H233.534L262.824 849.987Z" fill="#102030"/>
<path d="M155.594 309.336C172.804 309.336 177.434 331.696 177.434 331.696L196.914 433.436C196.914 433.436 199.394 450.926 175.424 447.946" stroke="#000001" stroke-width="2" stroke-linecap="round" stroke-linejoin="round"/>
<path d="M225.594 597.106C218.307 597.101 212.404 591.193 212.404 583.906V581.806C212.404 574.52 218.307 568.612 225.594 568.606" stroke="#000001" stroke-width="2" stroke-linecap="round" stroke-linejoin="round"/>
<path d="M101.834 656.787H320.014" stroke="#000001" stroke-width="2" stroke-linecap="round" stroke-linejoin="round"/>
<path d="M155.594 309.336C172.804 309.336 177.434 331.696 177.434 331.696L196.914 433.436C196.914 433.436 199.394 450.926 175.424 447.946" stroke="#000001" stroke-width="2" stroke-linecap="round" stroke-linejoin="round"/>
<path d="M225.594 597.106C218.307 597.101 212.404 591.193 212.404 583.906V581.806C212.404 574.52 218.307 568.612 225.594 568.606" stroke="#000001" stroke-width="2" stroke-linecap="round" stroke-linejoin="round"/>
<path fill-rule="evenodd" clip-rule="evenodd" d="M99.1237 447.946H86.9437L101.614 568.606V597.746L72.3237 849.986H84.5037L113.794 597.746V568.606L99.1237 447.946Z" fill="#102030"/>
<path fill-rule="evenodd" clip-rule="evenodd" d="M183.574 447.946H171.394L186.064 568.606L184.124 597.746L154.834 849.986H167.014L196.304 597.746L198.244 568.606L183.574 447.946Z" fill="#102030"/>
<path d="M1 849.836H887" stroke="#000001" stroke-width="2" stroke-linecap="round" stroke-linejoin="round"/>
<path fill-rule="evenodd" clip-rule="evenodd" d="M768.492 104.294L754.972 168.507H857.105L867.251 104.294H768.492Z" fill="#F8574D"/>
<path d="M782.379 127.581H815.053" stroke="#000001" stroke-width="2" stroke-linecap="round" stroke-linejoin="round"/>
<path d="M779.384 144.854H841.715" stroke="#000001" stroke-width="2" stroke-linecap="round" stroke-linejoin="round"/>
<path fill-rule="evenodd" clip-rule="evenodd" d="M563.297 41.0245L545.77 107.687L654.821 105.429L673.457 38.1924L563.297 41.0245Z" fill="#FFDB60"/>
<path d="M575.16 64.7505L581.933 86.2188L601.143 64.7505L607.93 83.3866L625.43 64.7505L632.778 83.3866L647.473 68.7048" stroke="#000001" stroke-width="2" stroke-linecap="round" stroke-linejoin="round"/>
<path fill-rule="evenodd" clip-rule="evenodd" d="M646.284 182.714L636.268 239.088H740.516L748.34 182.714H646.284Z" fill="white"/>
<path fill-rule="evenodd" clip-rule="evenodd" d="M646.284 182.714L636.268 239.088H740.516L748.34 182.714H646.284V182.714Z" stroke="#000001" stroke-width="2" stroke-linecap="round" stroke-linejoin="round"/>
<ellipse cx="670.623" cy="211.18" rx="3.50306" ry="3.50306" fill="#102030"/>
<ellipse cx="691.266" cy="211.18" rx="3.50307" ry="3.50306" fill="#102030"/>
<ellipse cx="711.817" cy="211.18" rx="3.50306" ry="3.50306" fill="#102030"/>
</svg>
