<svg width="68" height="65" viewBox="0 0 68 65" fill="none" xmlns="http://www.w3.org/2000/svg">
<path opacity="0.4" d="M51.4135 13.6652L44.8751 20.2441C41.6033 17.6108 37.4532 16.0361 32.9376 16.0361C22.3751 16.0361 13.8126 24.6517 13.8126 35.2795C13.8126 45.9074 22.3751 54.5229 32.9376 54.5229C43.5 54.5229 52.0626 45.9074 52.0626 35.2795C52.0626 32.2166 51.3514 29.3209 50.0862 26.7503L56.836 19.9587C59.6437 24.3836 61.2709 29.6404 61.2709 35.2795C61.2709 51.0245 48.5857 63.7883 32.9376 63.7883C17.2895 63.7883 4.60425 51.0245 4.60425 35.2795C4.60425 19.5346 17.2895 6.77075 32.9376 6.77075C39.9967 6.77075 46.4529 9.36828 51.4135 13.6652Z" fill="#777777"/>
<path d="M41.8458 23.2922C39.3626 21.4209 36.2787 20.3125 32.9376 20.3125C24.7223 20.3125 18.0626 27.0135 18.0626 35.2796C18.0626 43.5457 24.7223 50.2467 32.9376 50.2467C41.1528 50.2467 47.8126 43.5457 47.8126 35.2796C47.8126 33.42 47.4755 31.6397 46.8595 29.997L40.6736 36.2212C40.2113 40.1071 36.9241 43.1195 32.9376 43.1195C28.6343 43.1195 25.1459 39.6095 25.1459 35.2796C25.1459 30.9497 28.6343 27.4397 32.9376 27.4397C34.317 27.4397 35.6127 27.8004 36.7366 28.4331L41.8458 23.2922Z" fill="white"/>
<path d="M62.7734 8.28263L36.4439 34.7751C36.4671 34.9399 36.4791 35.1083 36.4791 35.2795C36.4791 37.2476 34.8934 38.8431 32.9374 38.8431C30.9814 38.8431 29.3958 37.2476 29.3958 35.2795C29.3958 33.3114 30.9814 31.7159 32.9374 31.7159C33.1076 31.7159 33.2749 31.728 33.4387 31.7513L59.7681 5.25882C60.598 4.42382 61.9435 4.42382 62.7734 5.25882C63.6032 6.09382 63.6032 7.44763 62.7734 8.28263Z" fill="#F1F1F1"/>
</svg>
