<svg width="79" height="79" viewBox="0 0 79 79" fill="none" xmlns="http://www.w3.org/2000/svg">
<path d="M47.4851 20.2678L52.4635 26.4908C55.099 29.7851 60.1094 29.7851 62.7449 26.4908L67.7233 20.2678C68.6307 19.1336 69.125 17.7243 69.125 16.2718V15.9848C69.125 12.6105 66.3896 9.875 63.0152 9.875C61.3948 9.875 59.8407 10.5187 58.6949 11.6645L57.6042 12.7552L56.5135 11.6645C55.3677 10.5187 53.8137 9.875 52.1932 9.875C48.8188 9.875 46.0834 12.6105 46.0834 15.9848V16.2718C46.0834 17.7243 46.5777 19.1336 47.4851 20.2678Z" fill="white"/>
<path opacity="0.4" d="M69.125 62.5417V57.1238C69.125 54.4318 67.4861 52.0111 64.9867 51.0113L58.291 48.333C55.1119 47.0614 51.4889 48.4389 49.9577 51.5014L49.375 52.6667C49.375 52.6667 41.1458 51.0208 34.5625 44.4375C27.9792 37.8542 26.3333 29.625 26.3333 29.625L27.4986 29.0423C30.5611 27.5111 31.9386 23.8881 30.667 20.709L27.9887 14.0133C26.9889 11.5139 24.5682 9.875 21.8762 9.875H16.4583C12.8225 9.875 9.875 12.8225 9.875 16.4583C9.875 45.5453 33.4547 69.125 62.5417 69.125C66.1775 69.125 69.125 66.1775 69.125 62.5417Z" fill="#D1D1D1"/>
</svg>
