<svg width="38" height="54" viewBox="0 0 38 54" fill="none" xmlns="http://www.w3.org/2000/svg">
<path opacity="0.4" d="M24.5883 4.5H6.70594C4.2369 4.5 2.23535 6.51472 2.23535 9V45C2.23535 47.4853 4.2369 49.5 6.70594 49.5H24.5883C27.0573 49.5 29.0589 47.4853 29.0589 45V9C29.0589 6.51472 27.0573 4.5 24.5883 4.5Z" fill="#28303F"/>
<path d="M15.6471 15.75H29.0589C31.5279 15.75 33.5294 17.7647 33.5294 20.25V29.25C33.5294 31.7353 31.5279 33.75 29.0589 33.75H15.6471V15.75Z" fill="black"/>
<path d="M17.8825 42.75C17.8825 43.9926 16.8817 45 15.6472 45C14.4126 45 13.4119 43.9926 13.4119 42.75C13.4119 41.5074 14.4126 40.5 15.6472 40.5C16.8817 40.5 17.8825 41.5074 17.8825 42.75Z" fill="black"/>
<path opacity="0.4" d="M15.6471 23.625L33.5294 23.625L33.5294 20.25L15.6471 20.25L15.6471 23.625Z" fill="#28303F"/>
</svg>
