<svg width="66" height="67" viewBox="0 0 66 67" fill="none" xmlns="http://www.w3.org/2000/svg">
<path opacity="0.4" d="M32 62.8334C49.0287 62.8334 62.8333 49.0289 62.8333 32.0001C62.8333 21.0321 57.1066 11.4017 48.4801 5.93588C43.7132 2.91547 38.0608 1.16675 32 1.16675C16.1292 1.16675 3.05902 13.1577 1.35481 28.5742C1.23046 29.699 1.16663 30.8421 1.16663 32.0001C1.16663 41.6861 5.63289 50.3289 12.6184 55.9816C17.9139 60.2667 24.6572 62.8334 32 62.8334Z" fill="#28303F"/>
<path d="M52.5555 45.7035C48.7713 45.7035 45.7037 42.6358 45.7037 38.8516C45.7037 35.0674 42.636 31.9997 38.8518 31.9997C35.0676 31.9997 32 28.9321 32 25.1479C32 21.3637 35.0676 18.296 38.8518 18.296C42.636 18.296 45.7037 15.2284 45.7037 11.4442C45.7037 9.18651 46.7956 7.18386 48.4801 5.93555C57.1066 11.4014 62.8333 21.0318 62.8333 31.9997C62.8333 36.9223 61.6798 41.5754 59.6283 45.7035H52.5555Z" fill="black"/>
<path d="M8.01848 28.5738C11.8027 28.5738 14.8703 31.6415 14.8703 35.4257C14.8703 39.2098 17.938 42.2775 21.7222 42.2775C25.5064 42.2775 28.574 45.3452 28.574 49.1294C28.574 52.9136 25.5064 55.9812 21.7222 55.9812L12.6184 55.9812C5.63289 50.3286 1.16663 41.6858 1.16663 31.9997C1.16663 30.8418 1.23046 29.6987 1.35481 28.5738H8.01848Z" fill="black"/>
</svg>
