<svg width="63" height="83" viewBox="0 0 63 83" fill="none" xmlns="http://www.w3.org/2000/svg">
<path opacity="0.4" d="M3.96545 13.3313C3.96545 7.13927 8.99153 2.11963 15.1915 2.11963H45.1277C51.3277 2.11963 56.3537 7.13928 56.3537 13.3313V65.6526C56.3537 71.8446 51.3277 76.8643 45.1277 76.8643H15.1915C8.99153 76.8643 3.96545 71.8446 3.96545 65.6526V13.3313Z" fill="#D1D9E1"/>
<path fill-rule="evenodd" clip-rule="evenodd" d="M23.6111 65.6525C23.6111 64.1045 24.8676 62.8496 26.4176 62.8496H33.9016C35.4516 62.8496 36.7082 64.1045 36.7082 65.6525C36.7082 67.2005 35.4516 68.4555 33.9016 68.4555H26.4176C24.8676 68.4555 23.6111 67.2005 23.6111 65.6525Z" fill="black"/>
</svg>
