<svg width="51" height="72" viewBox="0 0 51 72" fill="none" xmlns="http://www.w3.org/2000/svg">
<path opacity="0.4" d="M33 6.03955H9C5.68629 6.03955 3 8.74352 3 12.079V60.3948C3 63.7303 5.68629 66.4343 9 66.4343H33C36.3137 66.4343 39 63.7303 39 60.3948V12.079C39 8.74352 36.3137 6.03955 33 6.03955Z" fill="#28303F"/>
<path d="M21 21.1382H39C42.3137 21.1382 45 23.8421 45 27.1777V39.2566C45 42.5921 42.3137 45.2961 39 45.2961H21V21.1382Z" fill="black"/>
<path d="M24 57.375C24 59.0427 22.6569 60.3947 21 60.3947C19.3431 60.3947 18 59.0427 18 57.375C18 55.7072 19.3431 54.3552 21 54.3552C22.6569 54.3552 24 55.7072 24 57.375Z" fill="black"/>
<path opacity="0.4" d="M21 31.7073L45 31.7073L45 27.1777L21 27.1777L21 31.7073Z" fill="#28303F"/>
</svg>
