<svg width="356" height="296" viewBox="0 0 356 296" fill="none" xmlns="http://www.w3.org/2000/svg">
<path fill-rule="evenodd" clip-rule="evenodd" d="M284 60.33C296.84 77.47 304.2 97.33 304.2 118.58C304.2 182.87 236.68 234.98 153.41 234.98C137.475 235.011 121.599 233.053 106.15 229.15C101.433 227.919 96.4847 227.881 91.75 229.04L28.37 244.81C27.3427 245.06 26.2596 244.751 25.5192 243.996C24.7788 243.241 24.4904 242.152 24.76 241.13L34.7 204.25C36.4735 197.712 34.7795 190.721 30.21 185.72C12.82 166.72 2.60999 143.59 2.60999 118.59C2.60999 54.3 70.13 2.18001 153.41 2.18001C200.04 2.18001 241.72 18.52 269.41 44.18" fill="#EAE1FF"/>
<path d="M27.63 246.9C26.0817 246.891 24.6252 246.164 23.6859 244.933C22.7466 243.702 22.4305 242.106 22.83 240.61L32.77 203.72C34.3885 197.848 32.8779 191.557 28.77 187.06C10.37 166.98 0.640015 143.3 0.640015 118.57C0.640015 53.28 69.19 0.160004 153.44 0.160004C198.87 0.160004 241.64 15.67 270.77 42.7C271.321 43.1791 271.567 43.9202 271.412 44.6335C271.257 45.3468 270.726 45.919 270.026 46.1265C269.326 46.3339 268.569 46.1437 268.05 45.63C239.65 19.28 197.88 4.16 153.44 4.16C71.39 4.16 4.64001 55.48 4.64001 118.57C4.64001 142.28 14 165.03 31.72 184.35C36.7823 189.843 38.6704 197.549 36.72 204.76L26.78 241.64C26.6694 241.992 26.7616 242.376 27.02 242.64C27.2771 242.909 27.6624 243.013 28.02 242.91L91.4 227.14C96.4577 225.911 101.74 225.949 106.78 227.25C122.066 231.112 137.774 233.051 153.54 233.02C235.54 233.02 302.33 181.7 302.33 118.62C302.33 98.57 295.48 78.85 282.52 61.57C282.091 60.9966 282.001 60.238 282.283 59.58C282.566 58.922 283.177 58.4646 283.888 58.38C284.599 58.2955 285.301 58.5966 285.73 59.17C299.2 77.17 306.33 97.7 306.33 118.62C306.33 183.91 237.79 237.02 153.54 237.02C137.44 237.051 121.4 235.072 105.79 231.13C101.39 229.99 96.7776 229.952 92.36 231.02L28.85 246.72C28.4521 246.829 28.0425 246.89 27.63 246.9Z" fill="#372168"/>
<path d="M215.17 101.98H201.45C200.345 101.98 199.45 101.085 199.45 99.98C199.45 98.8754 200.345 97.98 201.45 97.98H215.17C216.275 97.98 217.17 98.8754 217.17 99.98C217.17 101.085 216.275 101.98 215.17 101.98Z" fill="#372168"/>
<path d="M189.25 101.98H91.64C90.5354 101.98 89.64 101.085 89.64 99.98C89.64 98.8754 90.5354 97.98 91.64 97.98H189.25C190.355 97.98 191.25 98.8754 191.25 99.98C191.25 101.085 190.355 101.98 189.25 101.98Z" fill="#372168"/>
<path d="M215.17 124.83H149.1C147.995 124.83 147.1 123.935 147.1 122.83C147.1 121.725 147.995 120.83 149.1 120.83H215.1C216.205 120.83 217.1 121.725 217.1 122.83C217.1 123.935 216.205 124.83 215.1 124.83H215.17Z" fill="#372168"/>
<path d="M135.41 124.83H91.64C90.5354 124.83 89.64 123.935 89.64 122.83C89.64 121.725 90.5354 120.83 91.64 120.83H135.41C136.515 120.83 137.41 121.725 137.41 122.83C137.41 123.935 136.515 124.83 135.41 124.83Z" fill="#372168"/>
<path d="M201.45 147.72H91.64C90.5354 147.72 89.64 146.825 89.64 145.72C89.64 144.615 90.5354 143.72 91.64 143.72H201.45C202.555 143.72 203.45 144.615 203.45 145.72C203.45 146.825 202.555 147.72 201.45 147.72Z" fill="#372168"/>
<path d="M76.32 63.9C76.0991 63.8993 75.8846 63.8255 75.71 63.69L66.33 56.49C66.1165 56.3292 65.9762 56.0896 65.9405 55.8247C65.9048 55.5598 65.9766 55.2916 66.14 55.08C66.4775 54.6447 67.1034 54.5642 67.54 54.9L76.93 62.1C77.2759 62.3594 77.4159 62.8116 77.2772 63.221C77.1384 63.6304 76.7523 63.9044 76.32 63.9Z" fill="#372168"/>
<path d="M85.7 62.1C85.4791 62.0993 85.2646 62.0255 85.09 61.89L66.33 47.49C66.1165 47.3292 65.9762 47.0896 65.9405 46.8247C65.9048 46.5598 65.9766 46.2916 66.14 46.08C66.4775 45.6447 67.1034 45.5642 67.54 45.9L86.31 60.3C86.5235 60.4608 86.6638 60.7004 86.6995 60.9653C86.7352 61.2302 86.6634 61.4984 86.5 61.71C86.3091 61.9581 86.013 62.1024 85.7 62.1Z" fill="#372168"/>
<path d="M85.7001 52.91C85.4812 52.9067 85.2684 52.837 85.0901 52.71L79.9301 48.71C79.4915 48.3756 79.4065 47.7492 79.7401 47.31C79.9009 47.0965 80.1405 46.9562 80.4054 46.9205C80.6703 46.8848 80.9385 46.9566 81.1501 47.12L86.3101 51.12C86.6473 51.3817 86.7812 51.8286 86.6435 52.2326C86.5058 52.6366 86.1269 52.9087 85.7001 52.91Z" fill="#372168"/>
<path d="M233.83 35.25C233.631 35.2504 233.436 35.1912 233.27 35.08C227.468 31.2308 221.214 28.1106 214.65 25.79C214.304 25.6759 214.048 25.383 213.981 25.0253C213.913 24.6675 214.046 24.3015 214.326 24.0696C214.607 23.8377 214.991 23.7766 215.33 23.91C222.047 26.2863 228.449 29.4768 234.39 33.41C234.61 33.5583 234.763 33.7882 234.813 34.049C234.864 34.3098 234.809 34.58 234.66 34.8C234.476 35.0794 234.165 35.2483 233.83 35.25Z" fill="#372168"/>
<path fill-rule="evenodd" clip-rule="evenodd" d="M172.04 218.72C172.04 257.37 212.63 288.72 262.68 288.72C272.194 288.739 281.673 287.577 290.9 285.26C293.949 284.495 297.141 284.495 300.19 285.26L334.19 293.7C335.59 294.079 337.085 293.671 338.098 292.633C339.111 291.595 339.483 290.09 339.07 288.7L334.41 271.43C333.16 266.793 334.329 261.839 337.52 258.25C347.52 247 353.38 233.39 353.38 218.71C353.38 180.07 312.79 148.71 262.72 148.71C212.65 148.71 172.04 180.09 172.04 218.72Z" fill="#CFDDFF"/>
<path fill-rule="evenodd" clip-rule="evenodd" d="M333.67 295.64C334.154 295.759 334.651 295.819 335.15 295.82V295.81C337.026 295.8 338.791 294.92 339.928 293.428C341.066 291.937 341.447 290.002 340.96 288.19L336.3 270.92C335.221 266.933 336.229 262.671 338.98 259.59C349.68 247.56 355.34 233.42 355.34 218.72C355.34 179.01 313.76 146.72 262.68 146.72C211.6 146.72 170.04 179.01 170.04 218.72C170.04 258.43 211.6 290.72 262.68 290.72C272.346 290.733 281.976 289.547 291.35 287.19C294.082 286.51 296.938 286.51 299.67 287.19L333.67 295.64ZM300.67 283.35C298.992 282.931 297.269 282.72 295.54 282.72C293.822 282.738 292.113 282.967 290.45 283.4C281.383 285.677 272.069 286.819 262.72 286.8C213.84 286.8 174.08 256.31 174.08 218.8C174.08 181.29 213.83 150.8 262.72 150.8C311.61 150.8 351.38 181.32 351.38 218.8C351.38 232.51 346.03 245.72 336.03 257.01C332.395 261.092 331.06 266.731 332.48 272.01L337.14 289.28C337.357 289.983 337.17 290.748 336.654 291.272C336.139 291.797 335.376 291.996 334.67 291.79L300.67 283.35Z" fill="#372168"/>
<path d="M305.1 213.64H291.55C290.445 213.64 289.55 212.745 289.55 211.64C289.55 210.535 290.445 209.64 291.55 209.64H305.1C306.205 209.64 307.1 210.535 307.1 211.64C307.1 212.745 306.205 213.64 305.1 213.64Z" fill="#372168"/>
<path d="M278.97 213.64H224.1C222.995 213.64 222.1 212.745 222.1 211.64C222.1 210.535 222.995 209.64 224.1 209.64H278.94C280.045 209.64 280.94 210.535 280.94 211.64C280.94 212.745 280.045 213.64 278.94 213.64H278.97Z" fill="#372168"/>
<path d="M296.1 232.94H261.83C260.725 232.94 259.83 232.045 259.83 230.94C259.83 229.835 260.725 228.94 261.83 228.94H296.1C297.205 228.94 298.1 229.835 298.1 230.94C298.1 232.045 297.205 232.94 296.1 232.94Z" fill="#372168"/>
<path d="M252.83 232.94H224.1C222.995 232.94 222.1 232.045 222.1 230.94C222.1 229.835 222.995 228.94 224.1 228.94H252.8C253.905 228.94 254.8 229.835 254.8 230.94C254.8 232.045 253.905 232.94 252.8 232.94H252.83Z" fill="#372168"/>
<path d="M323.29 181.57C323.042 181.569 322.803 181.477 322.62 181.31C319.064 178.1 315.124 175.342 310.89 173.1C310.444 172.821 310.291 172.245 310.538 171.781C310.786 171.318 311.35 171.125 311.83 171.34C316.207 173.661 320.281 176.512 323.96 179.83C324.265 180.108 324.369 180.544 324.221 180.929C324.072 181.314 323.703 181.569 323.29 181.57Z" fill="#372168"/>
<path d="M300.66 43.31C300.108 43.3707 299.611 42.9723 299.55 42.42C299.489 41.8677 299.888 41.3707 300.44 41.31L306.3 39.94C306.559 39.8802 306.83 39.9256 307.056 40.0663C307.281 40.2069 307.441 40.4313 307.5 40.69C307.56 40.9486 307.514 41.2204 307.374 41.4455C307.233 41.6706 307.009 41.8305 306.75 41.89L300.89 43.26L300.66 43.31Z" fill="#372168"/>
<path d="M295.85 37.96C295.438 37.9627 295.067 37.7129 294.915 37.3305C294.762 36.9481 294.859 36.5114 295.16 36.23L300.07 31.55C300.329 31.3035 300.7 31.2139 301.043 31.3149C301.386 31.416 301.649 31.6924 301.733 32.0399C301.817 32.3875 301.709 32.7535 301.45 33L296.54 37.72C296.348 37.8842 296.102 37.9699 295.85 37.96Z" fill="#372168"/>
<path d="M290.1 33.47H289.88C289.342 33.3505 289.002 32.8183 289.12 32.28L290.48 26C290.535 25.7398 290.692 25.5123 290.915 25.3678C291.138 25.2233 291.41 25.1737 291.67 25.23C292.208 25.3495 292.548 25.8817 292.43 26.42L291.1 32.72C290.983 33.1732 290.568 33.4848 290.1 33.47Z" fill="#372168"/>
</svg>
