<svg width="58" height="58" viewBox="0 0 58 58" fill="none" xmlns="http://www.w3.org/2000/svg">
<g clip-path="url(#clip0_1814_3351)">
<path opacity="0.4" d="M23.6833 42.0501C23.6833 47.9227 18.3666 58.0001 13.05 58.0001C7.7333 58.0001 2.41663 47.9227 2.41663 42.0501C2.41663 36.1775 7.17734 31.4167 13.05 31.4167C18.9226 31.4167 23.6833 36.1775 23.6833 42.0501Z" fill="#BBBBBB"/>
<path opacity="0.4" d="M58.2417 12.8083C58.2417 16.783 53.7844 22.2435 51.5343 24.7468C50.8347 25.5251 49.66 25.5698 48.9165 24.8332C46.642 22.5793 42.2916 17.7016 42.2916 13.3642C42.2916 7.49159 45.8622 4.83325 50.2666 4.83325C54.6711 4.83325 58.2417 7.49159 58.2417 12.8083Z" fill="#BBBBBB"/>
<path d="M17.0374 42.05C17.0374 44.2522 15.2521 46.0375 13.0499 46.0375C10.8476 46.0375 9.06238 44.2522 9.06238 42.05C9.06238 39.8478 10.8476 38.0625 13.0499 38.0625C15.2521 38.0625 17.0374 39.8478 17.0374 42.05Z" fill="white"/>
<path fill-rule="evenodd" clip-rule="evenodd" d="M14.3177 24.7468C16.5677 22.2435 21.025 16.783 21.025 12.8083C21.025 7.49159 17.4544 4.83325 13.05 4.83325C8.64549 4.83325 5.07495 7.49159 5.07495 13.3642C5.07495 17.7016 9.42531 22.5793 11.6999 24.8332C12.4433 25.5698 13.618 25.5251 14.3177 24.7468ZM13.05 15.4665C14.5181 15.4665 15.7083 14.2763 15.7083 12.8082C15.7083 11.34 14.5181 10.1498 13.05 10.1498C11.5818 10.1498 10.3916 11.34 10.3916 12.8082C10.3916 14.2763 11.5818 15.4665 13.05 15.4665Z" fill="white"/>
<path d="M52.9251 12.8082C52.9251 14.2764 51.7349 15.4666 50.2667 15.4666C48.7986 15.4666 47.6084 14.2764 47.6084 12.8082C47.6084 11.3401 48.7986 10.1499 50.2667 10.1499C51.7349 10.1499 52.9251 11.3401 52.9251 12.8082Z" fill="white"/>
<path fill-rule="evenodd" clip-rule="evenodd" d="M47.689 28.6775C48.4676 29.4561 48.4676 30.7184 47.689 31.4971L47.2776 31.9085C46.4989 32.6871 45.2366 32.6871 44.458 31.9085C43.6794 31.1299 43.6794 29.8675 44.458 29.0889L44.8694 28.6775C45.648 27.8989 46.9104 27.8989 47.689 28.6775ZM42.3406 34.0258C43.1193 34.8044 43.1193 36.0668 42.3406 36.8454L41.5178 37.6682C40.7392 38.4468 39.4768 38.4468 38.6982 37.6682C37.9196 36.8896 37.9196 35.6272 38.6982 34.8486L39.5211 34.0258C40.2997 33.2472 41.562 33.2472 42.3406 34.0258ZM36.5809 39.7855C37.3595 40.5641 37.3595 41.8265 36.5809 42.6051L35.7581 43.4279C34.9795 44.2065 33.7171 44.2065 32.9385 43.4279C32.1599 42.6493 32.1599 41.3869 32.9385 40.6083L33.7613 39.7855C34.5399 39.0069 35.8023 39.0069 36.5809 39.7855ZM30.8212 45.5452C31.5998 46.3239 31.5998 47.5862 30.8212 48.3648L30.4098 48.7762C29.6312 49.5549 28.3688 49.5549 27.5902 48.7762C26.8116 47.9976 26.8116 46.7353 27.5902 45.9567L28.0016 45.5452C28.7802 44.7666 30.0426 44.7666 30.8212 45.5452Z" fill="white"/>
<path fill-rule="evenodd" clip-rule="evenodd" d="M21.6896 24.7709C21.6896 23.6697 22.5822 22.7771 23.6833 22.7771H24.253C25.3541 22.7771 26.2467 23.6697 26.2467 24.7709C26.2467 25.872 25.3541 26.7646 24.253 26.7646H23.6833C22.5822 26.7646 21.6896 25.872 21.6896 24.7709ZM29.0949 24.7709C29.0949 23.6697 29.9876 22.7771 31.0887 22.7771H32.228C33.3291 22.7771 34.2217 23.6697 34.2217 24.7709C34.2217 25.872 33.3291 26.7646 32.228 26.7646H31.0887C29.9876 26.7646 29.0949 25.872 29.0949 24.7709ZM37.07 24.7709C37.07 23.6697 37.9626 22.7771 39.0637 22.7771H39.6334C40.7345 22.7771 41.6271 23.6697 41.6271 24.7709C41.6271 25.872 40.7345 26.7646 39.6334 26.7646H39.0637C37.9626 26.7646 37.07 25.872 37.07 24.7709Z" fill="white"/>
</g>
<defs>
<clipPath id="clip0_1814_3351">
<rect width="58" height="58" fill="white"/>
</clipPath>
</defs>
</svg>
