<svg width="76" height="76" viewBox="0 0 76 76" fill="none" xmlns="http://www.w3.org/2000/svg">
<path opacity="0.4" d="M57 9.5H19C12.0044 9.5 6.33337 15.1711 6.33337 22.1667V53.8333C6.33337 60.8289 12.0044 66.5 19 66.5H57C63.9956 66.5 69.6667 60.8289 69.6667 53.8333V22.1667C69.6667 15.1711 63.9956 9.5 57 9.5Z" fill="#BBBBBB"/>
<path fill-rule="evenodd" clip-rule="evenodd" d="M17.0241 24.0161C17.7517 22.9247 19.2263 22.6298 20.3177 23.3574L32.2915 31.3399C35.7484 33.6446 40.2521 33.6446 43.709 31.3399L55.6828 23.3574C56.7742 22.6298 58.2488 22.9247 58.9764 24.0161C59.704 25.1075 59.4091 26.582 58.3177 27.3096L46.3439 35.2922C41.2914 38.6605 34.7091 38.6605 29.6566 35.2922L17.6828 27.3096C16.5915 26.582 16.2965 25.1075 17.0241 24.0161Z" fill="black"/>
<path fill-rule="evenodd" clip-rule="evenodd" d="M3.95837 47.5C3.95837 46.1883 5.0217 45.125 6.33337 45.125H25.3334C26.6451 45.125 27.7084 46.1883 27.7084 47.5C27.7084 48.8117 26.6451 49.875 25.3334 49.875H6.33337C5.0217 49.875 3.95837 48.8117 3.95837 47.5Z" fill="black"/>
<path fill-rule="evenodd" clip-rule="evenodd" d="M3.95837 57C3.95837 55.6883 5.0217 54.625 6.33337 54.625H25.3334C26.6451 54.625 27.7084 55.6883 27.7084 57C27.7084 58.3117 26.6451 59.375 25.3334 59.375H6.33337C5.0217 59.375 3.95837 58.3117 3.95837 57Z" fill="black"/>
</svg>
